<?xml version="1.0" encoding="utf-8"?>
<!-- Generator: Adobe Illustrator 25.0.1, SVG Export Plug-In . SVG Version: 6.00 Build 0)  -->
<svg version="1.1" id="圖層_1" xmlns="http://www.w3.org/2000/svg" xmlns:xlink="http://www.w3.org/1999/xlink" x="0px" y="0px"
	 viewBox="0 0 280 55" style="enable-background:new 0 0 280 55;" xml:space="preserve">
<style type="text/css">
	.st0{fill:#4F2118;}
	.st1{fill:none;}
</style>
<path class="st0" d="M20.6,55C9.3,55,0,42.7,0,27.5S9.3,0.1,20.6,0.1s20.7,12.3,20.7,27.5S32,55,20.6,55z M20.6,0.8
	c-11,0-19.9,12-19.9,26.7s8.9,26.7,19.9,26.7s19.9-12,19.9-26.7S31.6,0.8,20.6,0.8z"/>
<path class="st1" d="M20.4,20c0,0,11.5,0.7,18.8,12.7c0.2-1.5,0.3-3.1,0.3-4.7c0-14.4-8.4-26.1-18.8-26.1S1.8,13.5,1.8,28
	c0,1.6,0.1,3.3,0.4,4.8C2.6,32.1,8.2,22.7,20.4,20L20.4,20z"/>
<path class="st0" d="M35.4,11.9c0,0-5-10.1-15.2-10c0,0-9.8-0.3-15.3,11.9c0,0-3.9,6.9-2.9,17.6c0,0,6.2-8.3,18.3-11.5
	c0,0,9.3,0.5,19,11.1C39.4,31.1,40.4,20.4,35.4,11.9z M24.1,12.2c0,0,1.8,3.6-3.6,3.6c0,0,0.9-1.7-0.5-1.8c0,0-1.4-0.1-3.2,0.3v-0.4
	c0,0,1.9-0.5,1.3-2.2c0,0-0.2-1.6-3.1-1.6c0,0,3.6-3.8,7.8-2.1c0,0,1.8,0.7,0.6,2.5c0,0,0.8,0.1,1.5,0.2l-0.6,0.4
	C24.2,11.2,23.6,11.7,24.1,12.2z"/>
<path class="st0" d="M3.5,38.2c0,0,4.5-6.5,11.6-9.4c0,0,4.7,6.2,4.3,24.2C19.4,53,8.8,52.7,3.5,38.2L3.5,38.2z"/>
<path class="st0" d="M37.8,38.2c0,0-4.5-6.5-11.6-9.4c0,0-4.7,6.2-4.3,24.2C21.8,53,32.4,52.7,37.8,38.2L37.8,38.2z"/>
<g>
	<path class="st0" d="M73.8,2c-0.1,0.3-0.4,0.4-1.1,0.4c-1.4,2.1-3.7,4.8-6.1,7c3.9,0,8.9-0.1,14.1-0.2c-1.3-1.5-2.9-2.8-4.5-3.7
		l0.2-0.3c7.2,1.5,9.4,4.6,9.4,6.6c0,1-0.6,1.8-1.5,1.8c-0.3,0-0.7-0.1-1.1-0.4c-0.4-1-1.1-2.1-1.9-3.2c-4.3,0.7-10.2,1.5-18.5,2.4
		c-0.2,0.3-0.5,0.5-0.8,0.6l-1.5-3.6c1.4,0,3.3,0,4.9,0c1.5-2.8,3.1-6.4,4-9L73.8,2L73.8,2z M78.8,15l1.3-1.6l3.4,2.4
		c-0.2,0.2-0.6,0.5-1.3,0.7v9c0,0-0.9,0.7-3.1,0.7v-1.9H67.2v1.1c0,0.1-0.4,1.1-2.9,1.1V13.8l3.1,1.2C67.4,15,78.8,15,78.8,15z
		 M67.2,23.7h11.9v-8.1H67.2L67.2,23.7L67.2,23.7z"/>
	<path class="st0" d="M130.4,4.8l3.3,2.3c-0.2,0.2-0.6,0.5-1.2,0.6V18c0,0-0.8,0.8-3,0.8v-2.7h-6.3v9.1c0,0.3-1.3,1.1-2.5,1.1H120
		V16.1h-6.2V18c0,0.1-0.4,1.1-3,1.1v-14l3.2,1.3h5.9V0.5l4.2,0.4c-0.1,0.4-0.3,0.6-1.1,0.7v4.8h6.1L130.4,4.8z M113.8,15.6h6.2V6.9
		h-6.2C113.8,6.9,113.8,15.6,113.8,15.6z M123.1,15.6h6.3V6.9h-6.3C123.1,6.9,123.1,15.6,123.1,15.6z"/>
	<path class="st0" d="M157.2,7.8c3.4,0.5,4.5,1.8,4.5,2.9c0,0.8-0.7,1.5-1.5,1.5c-0.4,0-0.8-0.2-1.1-0.5c-0.2-1.3-1.1-2.8-2.1-3.7
		L157.2,7.8L157.2,7.8z M183.1,10.4c-0.2,0.4-0.6,0.5-1.3,0.5h-6.4c1.7,2.3,4.9,4,7.9,4.7l-0.1,0.3c-1.1,0.3-1.9,1.2-2.2,2.6
		c-1.3-0.7-2.5-1.6-3.4-2.7h0v4.3c0,0-0.9,0.5-2.7,0.5v-1.2h-5.1v3.5c0,0.6,0,0.6,1.2,0.6h6.1c1.2,0,1.6,0,2.6-3h0.3l0,2.8
		c1.1,0.4,1.3,0.5,1.3,0.9c0,1-0.9,1.7-4.2,1.7h-6.3c-3.1,0-3.8-0.6-3.8-2.9v-5.3l3.2,1.2h4.8v-3.7h-7.2c-1.5,1.3-3.3,2.4-5.3,3.4
		l-0.3-0.4c2.5-1.9,4.4-4.5,5.6-7.2h-4c-0.8,2.6-1.6,5.1-1.8,5.9c-0.2,0.8-0.4,1.7-0.4,2.3v0.1c0.1,1.3,1,2.4,1,4.6
		c0,2.4-1.5,2.6-2.1,2.6c-0.6,0-1.1-0.4-1.3-1.4c0.2-1.2,0.3-2.3,0.3-3.3c0-2.5-0.5-2.8-2-3v-0.5c0.9,0,1.3,0,1.3,0v0
		c0.4,0,0.5,0,0.8-0.6c0.4-0.6,0.6-1,5.2-11.3l0.5,0.1c-0.4,1.1-0.8,2.5-1.2,3.9h3.6V5.8h-3.4l-0.1-0.5h3.5V0.5l3.9,0.4
		c0,0.4-0.3,0.6-1.2,0.7v3.6h4.1V0.5l4,0.4c-0.1,0.4-0.3,0.6-1.2,0.7v3.6h0.8l1.5-2.1l2.8,2.1c-0.2,0.4-0.6,0.5-1.3,0.5h-3.7v4.6
		h1.5l1.6-2.1L183.1,10.4L183.1,10.4z M158.5,0.7c3.6,0.6,4.8,2,4.8,3.1c0,0.9-0.7,1.6-1.5,1.6c-0.4,0-0.8-0.2-1.2-0.5
		c-0.3-1.4-1.2-3-2.3-4L158.5,0.7L158.5,0.7z M175.7,13.4l0.4,0.3c-0.5-0.9-0.9-1.8-1.3-2.8h-3.7c-0.7,1.4-1.6,2.6-2.8,3.7h6.4
		L175.7,13.4L175.7,13.4z M170.3,5.8v4.6h4.1V5.8H170.3z"/>
	<path class="st0" d="M205.6,7.9c3.5,0.5,4.6,1.8,4.6,2.9c0,0.9-0.7,1.5-1.5,1.5c-0.4,0-0.8-0.2-1.2-0.5c-0.2-1.3-1.1-2.8-2.1-3.7
		L205.6,7.9L205.6,7.9z M207.3,18.2c0.4,0,0.5,0,0.8-0.6c0.4-0.7,0.6-1,5.5-12.8l0.5,0.1c-1.1,3.6-3,10.2-3.4,11.7
		c-0.2,1-0.4,1.9-0.4,2.6c0,1.4,1,2.4,1,4.7c0,2.1-1.3,2.5-2.1,2.5c-0.6,0-1.2-0.4-1.4-1.4c0.2-1.2,0.3-2.3,0.3-3.2
		c0-2.7-0.5-2.9-2-3.1v-0.5C207,18.2,207.3,18.2,207.3,18.2L207.3,18.2z M206.7,0.8c3.8,0.4,5,1.8,5,2.9c0,0.9-0.7,1.6-1.6,1.6
		c-0.4,0-0.8-0.1-1.1-0.5c-0.4-1.3-1.4-2.9-2.5-3.9C206.6,1,206.7,0.8,206.7,0.8z M231.8,2.8c-0.2,0.4-0.6,0.5-1.4,0.5h-5.2v5.3h2
		l1.2-1.6l2.9,2.2c-0.2,0.2-0.5,0.4-1.2,0.5v15.7c0,0.2-0.9,0.8-2.3,0.8h-0.4V24h-10.7v1.6c0,0.2-0.8,0.8-2.2,0.8h-0.4v-19l2.9,1.2
		h1.6V3.3h-5.4l-0.2-0.5h14.2l1.6-2.1L231.8,2.8L231.8,2.8z M227.5,15.6c-0.3,0-0.6,0.1-0.9,0.1h-1.3c-2.2,0-2.4-0.4-2.4-3V9.1h-1.8
		c0,3-0.4,6.1-4.2,8.2l0,0v1.5h10.7L227.5,15.6L227.5,15.6z M216.8,16.7c1.8-2.1,1.9-4.8,1.9-7.6h-1.9V16.7z M216.8,23.4h10.7v-4.2
		h-10.7V23.4z M222.8,8.6V3.3h-1.8v5.3C221.1,8.6,222.8,8.6,222.8,8.6z M227.5,9.1h-2.2v3.6c0,0.6,0.1,0.8,0.3,0.8h0.9
		c0.5,0,0.7,0,1.1-0.7V9.1z"/>
	<path class="st0" d="M276.8,2.4l3.2,2.4c-0.2,0.4-0.6,0.5-1.4,0.5h-19.2v6.4c0,4.6-0.3,10.6-5.1,14.7l-0.3-0.2
		c2.4-4.2,2.6-9.6,2.6-14.4V3.6l3.3,1.2h6.4V0.5l4.1,0.4c-0.1,0.4-0.3,0.6-1.2,0.7v3.2h5.9L276.8,2.4L276.8,2.4z M274.7,11.2
		l1.7-2.3l3,2.3c-0.2,0.4-0.6,0.5-1.3,0.5h-7.9v5h3.8l1.2-1.6l3,2.2c-0.2,0.2-0.4,0.4-1.1,0.5v7.6c0,0.1-0.9,0.7-2.4,0.7h-0.5v-1.8
		h-10.3v1.2c0,0.2-0.9,0.8-2.3,0.8H261V15.6l3.1,1.2h3V6.3l4.1,0.4c-0.1,0.4-0.3,0.6-1.2,0.7v3.7L274.7,11.2L274.7,11.2z
		 M274.1,17.3h-10.3v6.5h10.3V17.3z"/>
</g>
<g>
	<g>
		<path class="st0" d="M66,37.1h-0.5c-0.6,0-2.2,0-2.9,0.2c-0.8,0.3-1.4,1.5-1.7,2.1c0,0.1-0.1,0.1-0.2,0.1l-0.3-0.1
			c-0.1,0-0.1,0-0.1-0.1c0.2-0.7,0.8-3,0.9-3.2c0-0.2,0.1-0.3,0.2-0.3c0.1,0,0.1,0,0.2,0.1l0.2,0.2c0.3,0.2,0.5,0.3,1.1,0.3
			c1,0,1.8,0.1,3.5,0.1h0.9c2,0,2.8-0.1,3.7-0.1c0.4,0,0.7-0.1,1-0.3l0.4-0.2c0.1,0,0.2-0.1,0.2-0.1c0.1,0,0.1,0.1,0.2,0.3
			c0,0.2,0.4,2.5,0.5,3.3c0,0.1,0,0.1-0.1,0.1l-0.3,0.1c-0.1,0-0.1,0-0.2-0.1c-0.2-0.3-0.7-1.8-1.3-2.1c-0.6-0.3-2.3-0.3-3.2-0.3
			h-0.5v5.3c0,0.3,0,5.4,0,5.7c0,0.5,0.2,0.7,0.6,0.7h1.2c0.2,0,0.2,0.1,0.2,0.2v0.4c0,0.1,0,0.1-0.2,0.1c-0.2,0-0.8,0-2.6,0
			c-1.8,0-2.6,0-2.8,0c-0.2,0-0.2-0.1-0.2-0.2V49c0-0.1,0-0.2,0.1-0.2h1.3c0.4,0,0.6-0.2,0.6-0.4c0.1-0.5,0.1-6.2,0.1-6.6L66,37.1
			L66,37.1z"/>
		<path class="st0" d="M69.5,49.7c0,0-0.1,0-0.2,0c-0.3,0-1,0-2.4,0c-1.3,0-2.1,0-2.5,0c-0.2,0-0.3,0-0.4,0c-0.1,0-0.4,0-0.4-0.4V49
			c0-0.3,0.2-0.4,0.3-0.4h1.3c0.3,0,0.4-0.1,0.4-0.2c0.1-0.5,0.1-5.9,0.1-6.5v-4.5h-0.3c-0.5,0-2.2,0-2.9,0.2
			c-0.7,0.2-1.3,1.5-1.5,2c-0.1,0.2-0.2,0.3-0.4,0.2l-0.3-0.1c-0.3-0.1-0.3-0.3-0.2-0.4c0.2-0.7,0.8-3,0.9-3.2
			c0.1-0.4,0.2-0.5,0.4-0.5c0.1,0,0.2,0,0.4,0.1l0.2,0.2c0.3,0.2,0.4,0.3,0.9,0.3c0.3,0,0.5,0,0.8,0c0.7,0,1.4,0.1,2.7,0.1h0.9
			c1.5,0,2.3,0,3-0.1c0.2,0,0.5,0,0.7,0c0.4,0,0.6-0.1,0.9-0.2l0.4-0.2c0.1-0.1,0.2-0.1,0.3-0.1c0.3,0,0.4,0.3,0.4,0.5l0.1,0.4
			c0.1,0.7,0.4,2.3,0.5,3c0,0.2,0,0.3-0.3,0.4l-0.4,0.1c-0.2,0-0.3-0.2-0.3-0.3l0-0.1c-0.2-0.4-0.7-1.6-1.2-1.9
			c-0.4-0.2-1.5-0.3-3.1-0.3h-0.3v5.1c0,2,0,5.5,0,5.7c0,0.4,0.2,0.5,0.4,0.5h1.2c0.4,0,0.4,0.3,0.4,0.4v0.4
			C69.9,49.5,69.9,49.7,69.5,49.7L69.5,49.7z M66.9,49.3c1.4,0,2.1,0,2.4,0c0.1,0,0.1,0,0.2,0V49h-1.1c-0.8,0-0.8-0.7-0.8-0.9
			c0-0.3,0-4.9,0-5.7v-5.5h0.7c1.2,0,2.7,0.1,3.3,0.3c0.6,0.3,1,1.2,1.4,2.1l0,0.1l0.1,0c-0.1-0.7-0.4-2.2-0.5-2.9l-0.1-0.4
			c0,0,0-0.1,0-0.1c0,0,0,0-0.1,0l-0.4,0.2c-0.4,0.2-0.7,0.3-1.1,0.3c-0.2,0-0.4,0-0.7,0c-0.7,0-1.5,0.1-3.1,0.1h-0.9
			c-1.3,0-2,0-2.7-0.1c-0.3,0-0.5,0-0.8,0c-0.6,0-0.8-0.1-1.2-0.4L61.5,36c0,0,0,0-0.1,0c0,0,0,0.1,0,0.1c0,0.2-0.7,2.5-0.9,3.2
			l0.2,0c0.3-0.7,0.9-1.9,1.8-2.2c0.8-0.2,2.4-0.2,3-0.2h0.7v5c0,1,0,6.1-0.1,6.6c0,0.3-0.3,0.6-0.8,0.6h-1.2v0.3c0.1,0,0.2,0,0.3,0
			C64.9,49.3,65.7,49.2,66.9,49.3L66.9,49.3z"/>
	</g>
	<g>
		<path class="st0" d="M80.2,47.3c0,1.1,0.2,1.4,0.6,1.4c0.3,0,0.6-0.1,0.7-0.3c0.1-0.1,0.1-0.1,0.2-0.1l0.2,0.1
			c0.1,0,0.1,0.1,0,0.3c-0.2,0.3-0.5,0.9-1.4,0.9c-0.7,0-1.2-0.5-1.3-1.2h0c-0.4,0.5-1,0.8-1.8,1.1c-0.4,0.1-0.7,0.1-1.1,0.1
			c-0.5,0-1.1-0.4-1.1-1.5c0-0.8,0.4-1.6,1.9-2.2c0.8-0.4,1.8-0.8,2.1-1.1v-1.2c0-0.3-0.1-0.8-0.3-1c-0.2-0.2-0.6-0.4-1.1-0.4
			c-0.4,0-0.9,0.1-1.2,0.4c-0.3,0.2-0.1,0.5-0.1,0.8c0,0.6-0.2,1-1,1c-0.3,0-0.4-0.2-0.4-0.6c0-0.6,0.5-1.3,1.3-1.7
			c0.8-0.5,1.4-0.6,2.3-0.6c0.8,0,1.2,0.3,1.5,0.5c0.4,0.4,0.4,0.8,0.4,1.3L80.2,47.3L80.2,47.3z M78.9,45.4
			c-0.7,0.5-2.5,0.9-2.5,2.4c0,0.7,0.4,1,1,1s1.5-0.6,1.5-1.1C78.9,47.7,78.9,45.4,78.9,45.4z"/>
		<path class="st0" d="M80.3,49.9c-0.6,0-1.2-0.4-1.4-1.1c-0.4,0.4-1,0.7-1.7,0.9c-0.4,0.1-0.7,0.1-1.2,0.1c-0.5,0-1.3-0.4-1.3-1.7
			c0-1.1,0.6-1.8,2-2.4c0.5-0.2,1.6-0.7,2-1l0-1.2c0-0.3-0.1-0.6-0.2-0.8c-0.2-0.2-0.5-0.3-1-0.3c-0.3,0-0.9,0.1-1.1,0.3
			c-0.1,0.1-0.1,0.2-0.1,0.4c0,0.1,0,0.2,0,0.3c0,0.8-0.4,1.3-1.2,1.3c-0.3,0-0.7-0.1-0.7-0.8s0.6-1.4,1.4-1.9
			c0.8-0.5,1.5-0.7,2.4-0.7s1.3,0.3,1.6,0.6c0.4,0.4,0.5,0.9,0.5,1.5v3.9c0,0.5,0.1,1.2,0.3,1.2c0.2,0,0.4-0.1,0.5-0.2
			c0.1-0.1,0.2-0.2,0.3-0.2c0.1,0,0.1,0,0.2,0.1l0.2,0.1c0.1,0.1,0.2,0.3,0,0.6C81.8,49.2,81.4,49.9,80.3,49.9L80.3,49.9z
			 M78.9,48.2h0.3l0.1,0.2c0.2,0.7,0.6,1.1,1.1,1.1c0.8,0,1.1-0.6,1.3-0.8c0.1-0.1,0.1-0.1,0.1-0.1l-0.1,0c-0.1,0.2-0.4,0.3-0.8,0.3
			c-0.8,0-0.8-1.2-0.8-1.6v-3.9c0-0.5,0-0.8-0.4-1.2c-0.2-0.2-0.5-0.4-1.3-0.4c-0.8,0-1.4,0.2-2.2,0.6c-0.7,0.4-1.2,1-1.2,1.5
			c0,0.4,0.1,0.4,0.2,0.4c0.6,0,0.8-0.2,0.8-0.8c0-0.1,0-0.2,0-0.2c0-0.2-0.1-0.5,0.2-0.8c0.3-0.3,0.9-0.4,1.4-0.4
			c0.6,0,1,0.2,1.3,0.5c0.2,0.2,0.3,0.7,0.3,1l0,0.1v1.3L79,45c-0.3,0.3-1.2,0.7-2.1,1.1c-1.5,0.7-1.7,1.4-1.7,2
			c0,1,0.6,1.3,0.9,1.3c0.4,0,0.7,0,1-0.1C77.9,49.1,78.5,48.8,78.9,48.2L78.9,48.2L78.9,48.2z M77.4,49c-0.7,0-1.2-0.5-1.2-1.2
			c0-1.3,1.1-1.8,1.9-2.2c0.3-0.1,0.5-0.2,0.6-0.3l0.3-0.2v2.7C79.1,48.3,78,49,77.4,49z M78.7,45.8c-0.1,0.1-0.2,0.1-0.4,0.2
			c-0.8,0.4-1.7,0.8-1.7,1.8c0,0.5,0.3,0.8,0.8,0.8s1.3-0.6,1.3-0.9V45.8L78.7,45.8z"/>
	</g>
	<g>
		<path class="st0" d="M85.8,44.1c0-0.6-0.1-1-1-1.1c-0.1,0-0.2-0.1-0.2-0.1v-0.2c0-0.1,0-0.1,0.1-0.1c0.6-0.2,1.3-0.5,2-0.9
			c0.2-0.1,0.2-0.1,0.4-0.1c0.1,0,0.1,0.1,0.1,0.2c0,0.3,0,1.5,0,3v2c0,0.7,0,1.4,0,1.6c0,0.3,0.1,0.5,0.3,0.5h0.9
			c0.2,0,0.2,0,0.2,0.2v0.3c0,0.1,0,0.2-0.2,0.2c-0.2,0-1,0-1.8,0c-1.1,0-1.8,0-2,0c-0.1,0-0.1,0-0.1-0.1V49c0-0.1,0.1-0.1,0.2-0.1
			h0.9c0.2,0,0.3-0.1,0.3-0.4c0-0.6,0-1.1,0-1.7L85.8,44.1L85.8,44.1z M85,38.5c0-0.5,0.4-1,1.1-1c0.7,0,1,0.5,1,0.9
			c0,0.5-0.3,1-1.1,1C85.6,39.4,85,39.1,85,38.5L85,38.5z"/>
		<path class="st0" d="M88.4,49.7c0,0-0.2,0-0.3,0c-0.4,0-0.9,0-1.5,0c-0.7,0-1.3,0-1.7,0c-0.2,0-0.3,0-0.3,0
			c-0.2,0-0.4-0.1-0.4-0.4V49c0-0.1,0-0.4,0.4-0.4h0.9c0,0,0.1,0,0.1,0c0,0,0,0,0-0.2c0-0.5,0-1.1,0-1.7v-2.7c0-0.5,0-0.8-0.9-0.9
			c-0.3,0-0.3-0.2-0.3-0.3v-0.2c0-0.1,0.1-0.2,0.3-0.3c0.8-0.3,1.4-0.6,2-0.9c0.2-0.1,0.3-0.1,0.5-0.1c0.1,0,0.2,0,0.2,0.1
			c0.1,0.1,0.1,0.2,0.1,0.4c0,0.3,0,1.5,0,3v2c0,0.7,0,1.4,0,1.6c0,0.2,0.1,0.3,0.1,0.3h0.9c0.3,0,0.4,0.1,0.4,0.4v0.3
			C88.7,49.7,88.5,49.7,88.4,49.7L88.4,49.7z M86.6,49.3c0.5,0,1.1,0,1.5,0c0.1,0,0.2,0,0.3,0v-0.2h-0.8c-0.4,0-0.5-0.4-0.5-0.7
			c0-0.2,0-0.9,0-1.6v-2c0-1.5,0-2.6,0-3c0,0-0.1,0-0.1,0.1c-0.6,0.3-1.2,0.6-2,0.9v0c1,0.2,1.2,0.6,1.2,1.3v2.7c0,0.6,0,1.1,0,1.7
			c0,0.3-0.1,0.6-0.5,0.6h-0.9v0.2c0.1,0,0.1,0,0.3,0C85.3,49.3,85.8,49.3,86.6,49.3z M86,39.6c-0.5,0-1.2-0.4-1.2-1.2
			c0-0.6,0.5-1.2,1.3-1.2c0.7,0,1.2,0.6,1.2,1.1C87.3,39,86.9,39.6,86,39.6L86,39.6z M86.1,37.7c-0.6,0-0.9,0.4-0.9,0.7
			c0,0.4,0.5,0.7,0.8,0.7c0.7,0,0.9-0.5,0.9-0.8C86.9,38.1,86.7,37.7,86.1,37.7L86.1,37.7z"/>
	</g>
	<g>
		<path class="st0" d="M93,45c0,1,0.4,2.1,0.9,2.8c0.6,0.8,1.4,0.9,2,0.9c0.9,0,1.4-0.2,2-0.8c0,0,0.1,0,0.2,0l0.2,0.2
			c0.1,0.1,0.1,0.1,0,0.2c-0.5,0.6-1.7,1.3-3,1.3c-1,0-2-0.2-2.9-1.3c-0.7-0.9-0.8-1.7-0.8-2.5c0-2.2,1.5-4.3,4-4.3
			c1.9,0,2.5,1.1,2.5,1.5c0,0.4-0.3,0.6-0.7,0.6c-0.4,0-0.7-0.2-1-0.7c-0.4-0.7-0.8-0.8-1.2-0.8C94.1,42.1,93,43.1,93,45L93,45z"/>
		<path class="st0" d="M95.3,49.9c-0.8,0-2.1-0.1-3-1.4c-0.8-1-0.9-1.9-0.9-2.6c0-2.2,1.6-4.5,4.2-4.5c2.1,0,2.7,1.2,2.7,1.7
			c0,0.5-0.4,0.9-0.9,0.9s-0.9-0.3-1.2-0.8c-0.4-0.6-0.7-0.7-1.1-0.7c-1,0-2,0.9-2,2.7c0,1,0.5,2.1,0.9,2.7c0.5,0.6,1,0.8,1.8,0.8
			c0.9,0,1.3-0.2,1.9-0.7c0.1-0.1,0.3-0.2,0.4,0l0.2,0.2c0.2,0.2,0.1,0.4,0,0.5C97.9,49.2,96.6,49.9,95.3,49.9L95.3,49.9z
			 M95.6,41.8c-2.3,0-3.7,2.1-3.7,4.1c0,0.7,0.1,1.5,0.8,2.4c0.9,1.1,1.9,1.2,2.7,1.2c1.1,0,2.3-0.6,2.8-1.2l-0.1-0.1
			C97.4,48.8,96.9,49,96,49c-0.9,0-1.7-0.3-2.2-1c-0.5-0.7-1-1.8-1-2.9c0-2,1.2-3.1,2.4-3.1c0.5,0,1,0.1,1.4,0.9
			c0.3,0.4,0.5,0.6,0.8,0.6c0.2,0,0.5-0.1,0.5-0.4C97.9,42.7,97.3,41.7,95.6,41.8L95.6,41.8z"/>
	</g>
	<g>
		<path class="st0" d="M102.5,39.4c0-1.1-0.2-1.3-0.9-1.5l-0.3-0.1c-0.1,0-0.1,0-0.1-0.1v-0.2c0-0.1,0.1-0.1,0.2-0.2l1.9-1
			c0.2-0.1,0.3-0.1,0.4-0.1c0.1,0,0.2,0.1,0.2,0.5c0,0.3-0.1,4.1-0.1,5v1.2h0.1c0.7-0.8,1.7-1.2,2.5-1.2s1.3,0.2,1.8,0.7
			c0.8,0.8,0.8,1.7,0.8,2.7v1c0,1,0,2.2,0,2.5c0,0.2,0.3,0.3,0.7,0.3h0.3c0.2,0,0.2,0,0.2,0.2v0.3c0,0.1,0,0.2-0.2,0.2
			c-0.1,0-0.7,0-1.8,0c-0.9,0-1.6,0-1.7,0c-0.1,0-0.2,0-0.2-0.2V49c0-0.1,0-0.1,0.1-0.1h0.4c0.3,0,0.7,0,0.7-0.3c0-0.3,0-1.2,0-1.8
			v-1.5c0-1-0.1-1.8-0.6-2.3c-0.4-0.3-0.8-0.5-1.2-0.5c-0.5,0-1.2,0.2-1.7,0.8c-0.2,0.2-0.4,0.6-0.4,0.9v4c0,0.6,0.1,0.8,0.4,0.8
			h0.6c0.1,0,0.2,0,0.2,0.1v0.3c0,0.1,0,0.2-0.2,0.2c-0.2,0-0.9,0-1.8,0c-0.9,0-1.6,0-1.8,0c-0.1,0-0.1,0-0.1-0.2V49
			c0-0.1,0.1-0.1,0.3-0.1h0.4c0.3,0,0.6-0.1,0.6-0.3c0.1-0.3,0.1-2.4,0.1-3.6V39.4L102.5,39.4z"/>
		<path class="st0" d="M110.2,49.7c0,0-0.1,0-0.2,0c-0.3,0-0.8,0-1.6,0c-0.6,0-1.1,0-1.5,0c-0.1,0-0.2,0-0.3,0
			c-0.1,0-0.4-0.1-0.4-0.4V49c0-0.3,0.2-0.4,0.3-0.4h0.4c0.5,0,0.5-0.1,0.5-0.1c0-0.2,0-0.7,0-1.1v-2.2c0-1-0.1-1.7-0.6-2.1
			c-0.3-0.3-0.7-0.5-1.1-0.5c-0.4,0-1,0.1-1.6,0.7c-0.2,0.2-0.3,0.5-0.3,0.8v4c0,0.5,0,0.5,0.2,0.5h0.6c0.4,0,0.4,0.3,0.4,0.4v0.3
			c0,0.4-0.3,0.4-0.4,0.4c0,0-0.1,0-0.3,0c-0.3,0-0.9,0-1.5,0c-0.6,0-1.2,0-1.5,0c-0.1,0-0.2,0-0.3,0c-0.2,0-0.3-0.1-0.3-0.4V49
			c0-0.4,0.3-0.4,0.5-0.4h0.4c0.3,0,0.4-0.1,0.4-0.1c0.1-0.3,0.1-2.4,0.1-3.5v-5.6c0-1.1-0.2-1.2-0.7-1.3l-0.3-0.1
			c-0.1,0-0.3-0.1-0.3-0.3v-0.2c0-0.2,0.1-0.3,0.3-0.3l0.1,0l2-1c0.1-0.1,0.3-0.1,0.5-0.1c0.1,0,0.2,0,0.3,0.1
			c0.1,0.1,0.1,0.3,0.1,0.6c0,0.3-0.1,3.8-0.1,5v0.7c0.7-0.7,1.7-1,2.4-1c0.8,0,1.4,0.2,2,0.8c0.9,0.8,0.9,1.8,0.9,2.7V46
			c0,0.6,0,1.3,0,1.9c0,0.3,0,0.5,0,0.7c0,0,0.1,0.1,0.5,0.1h0.3c0.4,0,0.4,0.2,0.4,0.4v0.3C110.5,49.7,110.3,49.7,110.2,49.7
			L110.2,49.7z M106.7,49.1v0.2c0.1,0,0.1,0,0.2,0c0.3,0,0.8,0,1.5,0c0.8,0,1.3,0,1.6,0c0.1,0,0.1,0,0.1,0l0,0v-0.2h-0.3
			c-0.2,0-0.9,0-0.9-0.5c0-0.1,0-0.4,0-0.7c0-0.5,0-1.2,0-1.9v-1.2c0-0.9,0-1.8-0.7-2.4c-0.5-0.5-1-0.7-1.7-0.7s-1.7,0.3-2.4,1.1
			l-0.1,0.1h-0.4v-1.4c0-0.6,0-4.7,0.1-5c0-0.1,0-0.2,0-0.2c-0.1,0-0.1,0-0.2,0.1l-2,1.1c0,0,0,0-0.1,0v0l0.3,0.1
			c0.8,0.2,1,0.5,1,1.7V45c0,1.6,0,3.3-0.1,3.6c0,0.1-0.2,0.5-0.8,0.5h-0.5v0.2c0,0,0.1,0,0.2,0c0.3,0,0.9,0,1.5,0
			c0.6,0,1.2,0,1.5,0c0.1,0,0.2,0,0.2,0v-0.2h-0.5c-0.6,0-0.6-0.5-0.6-1v-4c0-0.4,0.2-0.8,0.4-1c0.7-0.7,1.5-0.8,1.9-0.8
			c0.5,0,1,0.2,1.4,0.6c0.6,0.6,0.7,1.4,0.7,2.4v2.2c0,0.5,0,1,0,1.2c0,0.5-0.7,0.5-0.9,0.5L106.7,49.1L106.7,49.1z"/>
	</g>
	<g>
		<path class="st0" d="M120.5,45.7c0,0.9,0,1.8,0,2.2c0.1,0.6,0.3,0.6,0.5,0.6c0.1,0,0.4,0,0.6-0.1c0.2,0,0.2,0,0.2,0.1l0.1,0.2
			c0,0.1,0,0.1-0.1,0.2l-1.9,0.6c-0.1,0-0.2,0.1-0.4,0.1c-0.1,0-0.2,0-0.2-0.2l-0.2-1.1h0c-0.5,0.7-1.6,1.3-2.5,1.3
			c-0.5,0-1.1-0.1-1.7-0.8c-0.8-1-0.7-1.6-0.7-3.6v-2.1c0-0.5-0.3-0.6-0.7-0.7c-0.3,0-0.4,0-0.4-0.1v-0.3c0-0.1,0-0.1,0.2-0.1h1.7
			c0.1,0,0.2,0,0.3,0c0.1,0,0.2,0,0.2,0c0.1,0,0.2,0.1,0.2,0.2c0,0.2-0.1,1-0.1,2.1v1.3c0,0.7-0.2,1.9,0.4,2.8
			c0.5,0.7,1,0.7,1.5,0.7s1.2-0.5,1.6-0.9c0.1-0.1,0.2-0.3,0.2-0.5V43c0-0.5-0.3-0.6-0.8-0.6c-0.3,0-0.4,0-0.4-0.1v-0.3
			c0-0.1,0-0.2,0.2-0.2h1.7c0.1,0,0.2,0,0.3,0c0.1,0,0.2,0,0.2,0c0.1,0,0.2,0.1,0.2,0.2c0,0.2-0.1,0.6-0.1,2.5L120.5,45.7
			L120.5,45.7z"/>
		<path class="st0" d="M119.5,49.9c-0.1,0-0.3,0-0.4-0.4l-0.1-0.6c-0.6,0.6-1.6,1-2.4,1c-0.6,0-1.3-0.1-1.9-0.9
			c-0.8-1-0.8-1.7-0.8-3.5v-2.4c0-0.4-0.2-0.4-0.5-0.5c-0.3,0-0.6,0-0.6-0.3v-0.3c0-0.2,0.1-0.4,0.4-0.4h1.7c0.1,0,0.1,0,0.2,0h0.1
			c0,0,0.1,0,0.1,0c0.2,0,0.3,0,0.4,0.1c0.1,0.1,0.1,0.2,0.1,0.3c0,0.2-0.1,1.1-0.1,2.1v1.3c0,0.1,0,0.3,0,0.4
			c0,0.7-0.1,1.6,0.4,2.2c0.4,0.6,0.8,0.6,1.3,0.6c0.4,0,1.1-0.4,1.4-0.8c0.1-0.1,0.1-0.3,0.1-0.4V43c0-0.3-0.1-0.4-0.6-0.4h0
			c-0.2,0-0.6,0-0.6-0.3V42c0-0.4,0.3-0.4,0.4-0.4h1.7c0.1,0,0.2,0,0.3,0h0.1c0,0,0.1,0,0.1,0c0.2,0,0.3,0,0.4,0.1
			c0.1,0.1,0.1,0.2,0.1,0.3v0c0,0.2-0.1,0.8-0.1,2.4v1.4c0,0.9,0,1.8,0,2.2c0.1,0.4,0.2,0.4,0.3,0.4c0.1,0,0.4,0,0.6,0
			c0.2-0.1,0.4,0,0.5,0.2l0.1,0.2c0,0.2-0.1,0.4-0.3,0.4l-1.9,0.6C119.8,49.9,119.6,49.9,119.5,49.9L119.5,49.9z M113.2,42.1
			c0.1,0,0.2,0,0.2,0c0.4,0.1,0.9,0.2,0.9,0.9v2.4c0,1.8,0,2.3,0.7,3.2c0.5,0.7,1.1,0.8,1.6,0.8c0.8,0,1.9-0.5,2.3-1.2l0.1-0.1h0.3
			l0.1,0.2l0.1,1.1c0,0,0,0,0,0c0.1,0,0.2,0,0.3-0.1l1.9-0.6l0-0.1c-0.3,0-0.5,0-0.7,0c-0.4,0-0.6-0.3-0.7-0.8c0-0.4,0-1.3,0-2.2
			v-1.4c0-1.6,0.1-2.2,0.1-2.4l0,0c0,0-0.1,0-0.2,0c-0.1,0-0.2,0-0.3,0h-1.7v0.2c0,0,0.1,0,0.2,0c0.5,0,1,0.1,1,0.8v4.4
			c0,0.2-0.1,0.5-0.2,0.6c-0.4,0.5-1.2,1-1.8,1c-0.6,0-1.2-0.1-1.7-0.8c-0.5-0.7-0.5-1.7-0.5-2.5c0-0.2,0-0.3,0-0.4V44
			c0-1.1,0.1-2,0.1-2.1c0,0,0,0-0.1,0c-0.1,0-0.1,0-0.2,0c-0.1,0-0.1,0-0.3,0h-1.6L113.2,42.1L113.2,42.1z"/>
	</g>
	<g>
		<path class="st0" d="M132.5,48.5c0,0.3,0.2,0.4,0.4,0.4h0.6c0.2,0,0.2,0,0.2,0.2v0.3c0,0.1,0,0.2-0.2,0.2c-0.1,0-0.7,0-1.8,0
			c-0.9,0-1.5,0-1.7,0c-0.1,0-0.2,0-0.2-0.2V49c0-0.1,0.1-0.2,0.2-0.2h0.5c0.2,0,0.4-0.1,0.4-0.4c0-0.5,0-1.1,0-1.5v-2.4
			c0-0.7,0-1.3-0.5-1.7c-0.4-0.3-0.9-0.3-1.4-0.3c-0.3,0-0.9,0.1-1.5,0.7c-0.4,0.4-0.4,0.9-0.4,1.3v3.8c0,0.5,0.1,0.6,0.4,0.6h0.5
			c0.2,0,0.2,0,0.2,0.2v0.3c0,0.1,0,0.2-0.1,0.2c-0.1,0-0.6,0-1.6,0c-1,0-1.5,0-1.7,0c-0.1,0-0.1,0-0.1-0.2V49c0-0.1,0-0.2,0.2-0.2
			h0.5c0.2,0,0.4-0.1,0.4-0.4v-4.3c0-0.5-0.3-0.9-0.8-1.1l-0.2-0.1c-0.1-0.1-0.2-0.1-0.2-0.2v-0.1c0-0.1,0.1-0.1,0.2-0.2l1.6-0.9
			c0.1-0.1,0.3-0.1,0.3-0.1c0.1,0,0.1,0.1,0.2,0.2l0.1,1.1h0c0.5-0.7,1.6-1.3,2.5-1.3c0.6,0,1.1,0.1,1.6,0.4c0.6,0.4,1,1.3,1,1.8
			L132.5,48.5L132.5,48.5z"/>
		<path class="st0" d="M133.5,49.7c0,0-0.1,0-0.2,0c-0.3,0-0.8,0-1.6,0c-0.7,0-1.2,0-1.5,0c-0.1,0-0.2,0-0.2,0c-0.1,0-0.4,0-0.4-0.4
			V49c0-0.4,0.3-0.4,0.5-0.4h0.5c0.1,0,0.2,0,0.2-0.2c0-0.5,0-1.1,0-1.5v-2.4c0-0.7,0-1.2-0.5-1.5c-0.4-0.3-0.8-0.3-1.2-0.3
			c-0.1,0-0.8,0-1.3,0.6c-0.3,0.3-0.4,0.6-0.4,1.1v3.8c0,0.3,0.1,0.4,0.2,0.4h0.5c0.3,0,0.4,0.1,0.4,0.4v0.3c0,0.3-0.2,0.4-0.3,0.4
			c0,0-0.1,0-0.2,0c-0.2,0-0.7,0-1.4,0c-0.7,0-1.2,0-1.5,0c-0.1,0-0.2,0-0.2,0c-0.2,0-0.3-0.1-0.3-0.4V49c0-0.2,0.1-0.4,0.4-0.4h0.5
			c0.1,0,0.1,0,0.1,0l0,0c0,0,0,0,0-0.1v-4.3c0-0.4-0.2-0.7-0.6-0.9l-0.2-0.1c-0.2-0.1-0.3-0.2-0.3-0.3v-0.1c0-0.1,0-0.3,0.3-0.4
			l1.6-0.9c0.2-0.1,0.3-0.2,0.4-0.2c0.1,0,0.3,0.1,0.4,0.4l0.1,0.7c0.6-0.6,1.6-1.1,2.4-1.1c0.5,0,1.1,0.1,1.7,0.4
			c0.6,0.4,1.1,1.4,1.1,1.9v4.8c0,0.1,0,0.2,0.2,0.2h0.6c0.4,0,0.4,0.2,0.4,0.4v0.3C133.9,49.6,133.7,49.7,133.5,49.7L133.5,49.7z
			 M130.2,49.1v0.2c0,0,0.1,0,0.1,0c0.3,0,0.8,0,1.5,0c0.8,0,1.3,0,1.6,0c0.1,0,0.1,0,0.1,0v-0.2h-0.6c-0.4,0-0.6-0.2-0.6-0.6v-4.8
			c0-0.4-0.4-1.2-0.9-1.6c-0.5-0.3-1.1-0.4-1.5-0.4c-0.8,0-1.9,0.6-2.4,1.3l-0.1,0.1h-0.3l-0.1-0.2l-0.1-1.1v0c0,0-0.1,0-0.2,0.1
			l-1.7,0.9l0,0l0.2,0.1c0.4,0.2,0.9,0.5,0.9,1.3v4.3c0,0.5-0.3,0.6-0.6,0.6h-0.5v0.2c0,0,0.1,0,0.1,0c0.3,0,0.8,0,1.5,0
			c0.7,0,1.2,0,1.4,0c0,0,0.1,0,0.1,0v-0.2h-0.4c-0.6,0-0.7-0.3-0.7-0.8v-3.8c0-0.6,0.2-1,0.5-1.4c0.7-0.7,1.5-0.8,1.7-0.8
			c0.5,0,1,0,1.5,0.4c0.6,0.4,0.6,1.1,0.6,1.8v2.4c0,0.5,0,1.1,0,1.6c0,0.5-0.4,0.6-0.6,0.6L130.2,49.1L130.2,49.1z"/>
	</g>
	<g>
		<path class="st0" d="M137.3,53.9c-0.7-0.4-0.9-0.9-0.9-1.5c0-1,1.1-1.8,1.9-2.2v-0.1c-0.8-0.2-1.3-0.7-1.3-1.3
			c0-0.9,1-1.5,1.7-1.8v0c-0.7-0.3-1.7-1.2-1.7-2.8c0-1.2,1.1-2.7,3.2-2.7c1.4,0,2.2,0.8,2.3,1.1c0.5-0.4,1.1-0.7,1.7-0.7
			c0.6,0,0.9,0.4,0.9,0.8c0,0.3-0.3,0.7-0.7,0.7c-0.3,0-0.5-0.1-0.7-0.3c-0.1-0.1-0.2-0.2-0.4-0.2c-0.1,0-0.4,0-0.6,0.1
			c0.2,0.4,0.3,0.8,0.3,1.4c0,0.7-0.2,1.4-0.7,2c-0.5,0.5-1.5,0.9-2.1,0.9c-0.4,0-0.7,0-0.9-0.1c-0.4,0.1-1,0.5-1,1
			c0,0.8,0.9,0.7,2.2,0.6c1.5-0.1,2.4,0.1,3.2,0.7c0.8,0.6,0.9,1.3,0.9,1.8c0,0.9-0.3,1.6-1.2,2.3c-0.5,0.3-1.6,0.9-3.2,0.9
			C139.2,54.5,138.2,54.4,137.3,53.9L137.3,53.9z M143.4,52c0-1.1-0.8-1.9-2.7-1.8l-1.8,0.1c-0.6,0.1-1.5,0.8-1.5,1.8
			c0,0.5,0.4,1,0.7,1.3c0.6,0.4,1.3,0.5,2.6,0.5C141.4,53.9,143.5,53.4,143.4,52L143.4,52z M141.7,44.1c0-0.8-0.2-1.3-0.5-1.7
			c-0.2-0.2-0.6-0.4-0.9-0.4c-0.4,0-0.9,0.1-1.3,0.5c-0.6,0.6-0.7,1.5-0.7,2.2c0,0.6,0.2,1.2,0.6,1.6c0.3,0.3,0.7,0.5,1.1,0.5
			C141.3,46.8,141.7,45.3,141.7,44.1L141.7,44.1z"/>
		<path class="st0" d="M140.1,54.7c-0.8,0-2-0.1-2.9-0.6c-0.7-0.4-1.1-1-1.1-1.7c0-1,0.8-1.7,1.7-2.2c-0.6-0.3-1-0.8-1-1.4
			c0-0.8,0.7-1.4,1.4-1.8c-0.6-0.4-1.5-1.2-1.5-2.8c0-1.4,1.3-2.9,3.4-2.9c0.9,0,1.8,0.3,2.4,1c0.5-0.3,1.1-0.6,1.7-0.6
			c0.4,0,0.7,0.1,0.9,0.3c0.2,0.2,0.3,0.4,0.2,0.7c0,0.5-0.4,0.9-0.9,0.9c-0.4,0-0.7-0.2-0.8-0.3c-0.1,0-0.2-0.1-0.3-0.1
			s-0.2,0-0.3,0c0.1,0.3,0.2,0.7,0.2,1.3c0,0.8-0.3,1.6-0.7,2.1c-0.5,0.6-1.6,1-2.3,1c-0.4,0-0.6,0-0.9-0.1
			c-0.3,0.1-0.8,0.4-0.8,0.8c0,0.2,0.1,0.5,1,0.5c0.3,0,0.6,0,1,0c1.6-0.1,2.6,0.1,3.3,0.7c0.8,0.6,1,1.4,1,1.9c0,1-0.4,1.8-1.3,2.4
			C142.8,54.2,141.6,54.7,140.1,54.7L140.1,54.7z M138.1,50.5c-0.8,0.4-1.6,1.1-1.6,1.9c0,0.6,0.3,1,0.8,1.3c0.9,0.5,2,0.6,2.7,0.6
			c1.8,0,2.9-0.7,3-0.8c0.8-0.6,1.2-1.2,1.2-2.1c0-0.5-0.1-1.1-0.8-1.6c-0.7-0.5-1.6-0.7-3-0.6c-0.4,0-0.7,0-1,0
			c-0.4,0-1.4,0-1.4-0.9c0-0.5,0.4-0.8,0.7-1c-0.6,0.2-1.5,0.8-1.5,1.5c0,0.4,0.4,0.9,1.1,1.1l0.2,0v0.3c0.1-0.1,0.3-0.1,0.4-0.1
			l1.8-0.1c0.1,0,0.3,0,0.4,0c1.9,0,2.5,1,2.5,2c0,0.4-0.1,0.8-0.4,1.2c-0.7,0.7-1.9,0.9-2.4,0.9c-1.3,0-2-0.1-2.7-0.6
			c-0.4-0.3-0.8-0.9-0.8-1.4C137.2,51.4,137.6,50.8,138.1,50.5L138.1,50.5z M141.1,50.4c-0.1,0-0.2,0-0.4,0l-1.8,0.1
			c-0.4,0.1-1.3,0.6-1.3,1.6c0,0.4,0.3,0.9,0.6,1.1c0.5,0.4,1.1,0.5,2.5,0.5c0.5,0,1.6-0.2,2.1-0.8c0.2-0.2,0.3-0.5,0.3-0.9
			C143.2,51,142.4,50.4,141.1,50.4L141.1,50.4z M140.2,41.8c-2,0-3,1.4-3,2.5c0,1.8,1.2,2.4,1.6,2.6l0.1,0v0.3
			c0.1-0.1,0.2-0.1,0.3-0.1l0.1,0l0.1,0c0.2,0.1,0.5,0.1,0.9,0.1c0.6,0,1.6-0.4,2-0.8c0.4-0.5,0.6-1.1,0.6-1.9c0-0.6-0.1-1-0.3-1.3
			l-0.1-0.2l0.2-0.1c0.3-0.1,0.5-0.1,0.7-0.1c0.2,0,0.4,0.1,0.5,0.2c0.2,0.1,0.3,0.2,0.5,0.2c0.3,0,0.5-0.2,0.5-0.5
			c0-0.1,0-0.3-0.1-0.4c-0.1-0.1-0.2-0.2-0.5-0.2c-0.6,0-1.2,0.4-1.6,0.7l-0.2,0.1l-0.1-0.1C141.8,42.1,141,41.7,140.2,41.8
			L140.2,41.8z M140,47c-0.5,0-0.9-0.2-1.3-0.5c-0.4-0.4-0.7-1.1-0.7-1.8c0-0.7,0.1-1.6,0.7-2.3c0.5-0.5,1-0.6,1.5-0.6
			c0.3,0,0.8,0.2,1,0.5c0.4,0.4,0.6,1,0.6,1.8C141.9,45.5,141.4,47,140,47z M140.3,42.3c-0.4,0-0.8,0.1-1.2,0.5
			c-0.5,0.6-0.6,1.3-0.6,2c0,0.6,0.2,1.1,0.5,1.5c0.3,0.3,0.6,0.4,1,0.4c1.2,0,1.5-1.6,1.5-2.5c0-0.7-0.1-1.2-0.4-1.5
			C140.8,42.4,140.5,42.3,140.3,42.3z"/>
	</g>
	<g>
		<path class="st0" d="M156.3,42.2c0-1.1,0-3.6,0-3.9c0-0.9-0.1-1.2-0.8-1.2h-0.9c-0.1,0-0.1,0-0.1-0.1v-0.4c0-0.1,0.1-0.1,0.2-0.1
			c0.4,0,1,0.1,2.6,0.1c1.4,0,2.1-0.1,2.5-0.1c0.1,0,0.2,0,0.2,0.1v0.5c0,0.1,0,0.1-0.1,0.1h-0.9c-0.6,0-0.7,0.3-0.7,1
			c0,0.3,0,2.7,0,3.7v0.3c0,0.1,0.1,0.1,0.2,0.1h6.9c0.3,0,0.4,0,0.4-0.3v-0.2c0-1-0.1-3.6-0.1-3.8c0-0.6-0.1-0.9-0.6-0.9h-1
			c-0.1,0-0.1,0-0.1-0.1v-0.5c0-0.1,0-0.1,0.1-0.1c0.4,0,1.2,0.1,2.4,0.1s2-0.1,2.4-0.1c0.1,0,0.2,0,0.2,0.1v0.4
			c0,0.1,0,0.1-0.2,0.1h-0.8c-0.5,0-0.6,0.3-0.6,1c0,0.3,0,3.4,0,4.1v0.6c0,0.6,0,4.1,0.1,5.2c0,0.7,0.2,0.9,0.7,0.9h0.8
			c0.1,0,0.2,0,0.2,0.1v0.4c0,0.1,0,0.1-0.2,0.1c-0.4,0-1,0-2.3,0c-1.6,0-2.2,0-2.8,0c-0.1,0-0.1,0-0.1-0.1v-0.5
			c0-0.1,0-0.1,0.2-0.1h1.2c0.4,0,0.5-0.3,0.5-0.8c0-0.9,0.1-3.8,0.1-4.5v-0.3c0-0.2-0.1-0.2-0.4-0.2h-6.8c-0.2,0-0.3,0-0.3,0.2v0.4
			c0,0.5,0,3.3,0,4.6c0,0.4,0.2,0.6,0.6,0.6h0.9c0.1,0,0.2,0,0.2,0.1v0.5c0,0.1,0,0.1-0.2,0.1c-0.4,0-1,0-2.3,0c-1.6,0-2.2,0-2.6,0
			c-0.1,0-0.1,0-0.1-0.1v-0.5c0-0.1,0.1-0.1,0.1-0.1h1.1c0.5,0,0.5-0.4,0.5-0.9c0-0.9,0.1-4.4,0.1-4.9L156.3,42.2L156.3,42.2z"/>
		<path class="st0" d="M168.8,49.7c-0.1,0-0.3,0-0.5,0c-0.4,0-1,0-1.9,0c-1,0-1.6,0-2.1,0c-0.3,0-0.5,0-0.7,0
			c-0.2,0-0.3-0.1-0.3-0.3v-0.5c0-0.2,0.1-0.3,0.4-0.3h1.2c0.2,0,0.3,0,0.3-0.6c0-0.8,0.1-3.8,0.1-4.5v-0.3l0,0c-0.1,0-0.2,0-0.2,0
			h-6.8v0.4c0,0.5,0,3.3,0,4.6c0,0.4,0.1,0.4,0.4,0.4h0.9c0.2,0,0.4,0.1,0.4,0.3v0.5c0,0.2-0.1,0.3-0.4,0.3c-0.1,0-0.3,0-0.5,0
			c-0.4,0-1,0-1.8,0c-1,0-1.7,0-2.1,0c-0.2,0-0.4,0-0.5,0c-0.2,0-0.4-0.1-0.4-0.3v-0.5c0-0.2,0.2-0.3,0.4-0.3h1.1
			c0.2,0,0.3,0,0.3-0.7c0-0.9,0.1-4.4,0.1-4.9v-0.8c0-0.8,0-2.1,0-3c0-0.5,0-0.8,0-0.9c0-0.9-0.1-1-0.6-1h-0.9c-0.1,0-0.3,0-0.3-0.4
			v-0.4c0-0.2,0.1-0.3,0.4-0.3c0.1,0,0.3,0,0.5,0c0.4,0,1,0,2.1,0c1,0,1.6,0,2,0c0.2,0,0.4,0,0.5,0c0.3,0,0.4,0.2,0.4,0.3v0.5
			c0,0.2-0.1,0.4-0.4,0.4h-0.9c-0.4,0-0.5,0.1-0.5,0.8c0,0.1,0,0.4,0,0.9c0,0.9,0,2.2,0,2.9v0.2h6.9c0.1,0,0.1,0,0.2,0
			c0,0,0,0,0-0.1v-0.2c0-0.7,0-2.1,0-3c0-0.4,0-0.7,0-0.8c0-0.7-0.1-0.7-0.4-0.7h-1c-0.2,0-0.3-0.1-0.3-0.3v-0.5
			c0-0.2,0.1-0.3,0.3-0.3c0.1,0,0.3,0,0.6,0c0.4,0,1.1,0,1.9,0s1.4,0,1.9,0c0.2,0,0.4,0,0.5,0c0.2,0,0.4,0.1,0.4,0.4v0.4
			c0,0.2-0.1,0.3-0.4,0.3h-0.8c-0.3,0-0.4,0-0.4,0.8c0,0.1,0,0.6,0,1.2c0,1,0,2.4,0,2.8v0.6c0,0.6,0,4.1,0.1,5.2
			c0,0.6,0.2,0.7,0.5,0.7h0.8c0.3,0,0.4,0.2,0.4,0.3v0.4C169.3,49.6,169.1,49.7,168.8,49.7L168.8,49.7z M157.3,49.3
			c0.9,0,1.5,0,1.9,0c0.2,0,0.3,0,0.4,0V49h-0.8c-0.5,0-0.8-0.3-0.8-0.8c0-1.3,0-4.1,0-4.6v-0.4c0-0.2,0.1-0.4,0.5-0.4h6.8
			c0.3,0,0.6,0,0.6,0.4v0.3c0,0.7,0,3.7-0.1,4.5c0,0.4,0,1.1-0.7,1.1h-1.1v0.3c0.2,0,0.4,0,0.6,0c0.5,0,1.1,0,2.1,0
			c0.9,0,1.5,0,1.9,0c0.2,0,0.3,0,0.4,0V49H168c-0.8,0-1-0.6-1-1.1c0-1-0.1-4.5-0.1-5.2v-0.6c0-0.4,0-1.8,0-2.8c0-0.6,0-1.1,0-1.2
			c0-0.5,0-1.2,0.8-1.2h0.8v-0.3c-0.1,0-0.3,0-0.4,0c-0.4,0-1,0-1.9,0s-1.4,0-1.9,0c-0.2,0-0.3,0-0.5,0v0.3h0.9
			c0.8,0,0.8,0.7,0.8,1.1c0,0.1,0,0.4,0,0.8c0,0.9,0,2.3,0,3.1V42c0,0.5-0.4,0.5-0.6,0.5h-6.9c-0.4,0-0.4-0.3-0.4-0.4v-0.3
			c0-0.7,0-2,0-2.9c0-0.4,0-0.8,0-0.8c0-0.7,0.1-1.3,0.9-1.3h0.9v-0.3c-0.1,0-0.3,0-0.4,0c-0.4,0-1,0-2,0c-1.1,0-1.7,0-2.2,0
			c-0.2,0-0.3,0-0.4,0v0.3h0.8c0.9,0,1,0.4,1,1.4c0,0.1,0,0.4,0,0.9c0,0.9,0,2.3,0,3V43c0,0.5,0,4.1-0.1,4.9c0,0.3,0,1.1-0.7,1.1h-1
			v0.3c0.1,0,0.3,0,0.4,0C155.6,49.3,156.2,49.2,157.3,49.3L157.3,49.3z"/>
	</g>
	<g>
		<path class="st0" d="M177.9,47.3c0,1.1,0.2,1.4,0.6,1.4c0.3,0,0.6-0.1,0.6-0.3c0.1-0.1,0.1-0.1,0.2-0.1l0.2,0.1
			c0.1,0,0.1,0.1,0,0.3c-0.2,0.3-0.5,0.9-1.4,0.9c-0.7,0-1.2-0.5-1.3-1.2h0c-0.4,0.5-1,0.8-1.8,1.1c-0.4,0.1-0.7,0.1-1.1,0.1
			c-0.4,0-1.1-0.4-1.1-1.5c0-0.8,0.4-1.6,1.9-2.2c0.8-0.4,1.8-0.8,2.1-1.1v-1.2c0-0.3-0.1-0.8-0.3-1c-0.2-0.2-0.6-0.4-1.1-0.4
			c-0.4,0-0.9,0.1-1.2,0.4c-0.3,0.2-0.1,0.5-0.1,0.8c0,0.6-0.2,1-1,1c-0.3,0-0.4-0.2-0.4-0.6c0-0.6,0.5-1.3,1.3-1.7
			c0.8-0.5,1.4-0.6,2.3-0.6c0.8,0,1.2,0.3,1.5,0.5c0.4,0.4,0.4,0.8,0.4,1.3L177.9,47.3L177.9,47.3z M176.6,45.4
			c-0.7,0.5-2.5,0.9-2.5,2.4c0,0.7,0.4,1,1,1c0.6,0,1.5-0.6,1.5-1.1L176.6,45.4L176.6,45.4z"/>
		<path class="st0" d="M178.1,49.9c-0.7,0-1.2-0.4-1.4-1.1c-0.4,0.4-1,0.7-1.7,0.9c-0.4,0.1-0.7,0.1-1.2,0.1c-0.5,0-1.3-0.4-1.3-1.7
			c0-1.1,0.6-1.8,2-2.4c0.5-0.2,1.6-0.7,2-1l0-1.2c0-0.3-0.1-0.6-0.2-0.8c-0.2-0.2-0.5-0.3-1-0.3c-0.3,0-0.9,0.1-1.1,0.3
			c-0.1,0.1-0.1,0.2-0.1,0.4c0,0.1,0,0.2,0,0.3c0,0.8-0.4,1.3-1.2,1.3c-0.3,0-0.7-0.1-0.7-0.8s0.6-1.4,1.4-1.9
			c0.8-0.5,1.5-0.7,2.4-0.7s1.3,0.3,1.6,0.6c0.4,0.4,0.5,0.9,0.5,1.5v3.9c0,0.5,0.1,1.2,0.3,1.2c0.2,0,0.4-0.1,0.5-0.2
			c0.1-0.1,0.2-0.2,0.3-0.2c0.1,0,0.1,0,0.2,0.1l0.2,0.1c0.1,0.1,0.2,0.3,0,0.6C179.5,49.2,179.1,49.9,178.1,49.9L178.1,49.9z
			 M176.6,48.2h0.3l0.1,0.2c0.2,0.7,0.6,1.1,1.1,1.1c0.8,0,1.1-0.6,1.3-0.8c0.1-0.1,0.1-0.1,0.1-0.1l-0.1,0
			c-0.1,0.2-0.4,0.3-0.8,0.3c-0.8,0-0.8-1.2-0.8-1.6v-3.9c0-0.5,0-0.8-0.4-1.2c-0.2-0.2-0.5-0.4-1.3-0.4c-0.8,0-1.4,0.2-2.2,0.6
			c-0.7,0.4-1.2,1-1.2,1.5c0,0.4,0.1,0.4,0.2,0.4c0.6,0,0.8-0.2,0.8-0.8c0-0.1,0-0.2,0-0.2c0-0.2-0.1-0.5,0.2-0.8
			c0.3-0.3,0.9-0.4,1.3-0.4c0.6,0,1,0.2,1.3,0.5c0.2,0.2,0.3,0.7,0.3,1l0,0.1v1.3l-0.1,0.1c-0.3,0.3-1.2,0.7-2.1,1.1
			c-1.5,0.7-1.7,1.4-1.7,2c0,1,0.6,1.3,0.9,1.3c0.4,0,0.7,0,1-0.1C175.6,49.1,176.2,48.8,176.6,48.2L176.6,48.2L176.6,48.2z
			 M175.1,49c-0.7,0-1.2-0.5-1.2-1.2c0-1.3,1.1-1.8,1.9-2.2c0.3-0.1,0.5-0.2,0.6-0.3l0.3-0.2v2.7C176.8,48.3,175.7,49,175.1,49z
			 M176.4,45.8c-0.1,0.1-0.2,0.1-0.4,0.2c-0.8,0.4-1.7,0.8-1.7,1.8c0,0.5,0.3,0.8,0.8,0.8c0.5,0,1.3-0.6,1.3-0.9V45.8L176.4,45.8z"
			/>
	</g>
	<g>
		<path class="st0" d="M183.5,44.5c0-0.9-0.2-1.1-0.7-1.4l-0.4-0.2c-0.1,0-0.2-0.1-0.2-0.1v-0.1c0-0.1,0-0.1,0.2-0.2l1.8-0.9
			c0.1,0,0.2-0.1,0.3-0.1c0.1,0,0.1,0.1,0.1,0.2l0.1,1.3h0.1c0.6-0.8,1.4-1.6,2.2-1.6c0.6,0,0.9,0.4,0.9,0.8c0,0.5-0.4,0.9-0.8,0.9
			c-0.2,0-0.4-0.1-0.5-0.1c-0.2-0.1-0.4-0.1-0.6-0.1c-0.3,0-0.8,0.2-1.1,0.8c-0.1,0.2-0.2,0.5-0.2,0.6v3.9c0,0.6,0.1,0.8,0.5,0.8
			h0.9c0.1,0,0.1,0,0.1,0.2v0.3c0,0.1,0,0.2-0.1,0.2c-0.1,0-1,0-2,0c-1.2,0-1.9,0-2,0c-0.1,0-0.1,0-0.1-0.2V49c0-0.1,0-0.2,0.2-0.2
			h0.7c0.3,0,0.4-0.1,0.4-0.3c0-0.6,0-1.3,0-2.2L183.5,44.5L183.5,44.5z"/>
		<path class="st0" d="M186.2,49.7c0,0-0.1,0-0.2,0c-0.3,0-1,0-1.7,0c-0.9,0-1.5,0-1.8,0c-0.1,0-0.2,0-0.2,0c-0.1,0-0.3,0-0.3-0.4
			V49c0-0.4,0.3-0.4,0.4-0.4h0.7c0.2,0,0.2,0,0.2-0.1c0-0.6,0-1.3,0-2.2v-1.7c0-0.9-0.1-1-0.6-1.2l-0.4-0.2c-0.1,0-0.3-0.1-0.3-0.3
			v-0.1c0-0.2,0.2-0.3,0.3-0.4l1.8-0.9c0.1-0.1,0.3-0.1,0.4-0.1c0.1,0,0.3,0,0.3,0.4l0.1,0.8c0.5-0.7,1.3-1.3,2.1-1.3
			c0.8,0,1.2,0.5,1.2,1c0,0.6-0.5,1.1-1,1.1c-0.3,0-0.5-0.1-0.6-0.2c-0.1-0.1-0.3-0.1-0.5-0.1c-0.3,0-0.6,0.2-0.9,0.7
			c-0.1,0.2-0.2,0.4-0.2,0.5v3.9c0,0.5,0.1,0.5,0.3,0.5h0.9c0.1,0,0.3,0,0.3,0.4v0.3C186.5,49.7,186.3,49.7,186.2,49.7L186.2,49.7z
			 M182.3,49.1v0.2c0,0,0.1,0,0.1,0c0.3,0,1,0,1.9,0c0.8,0,1.4,0,1.8,0c0,0,0.1,0,0.1,0v-0.2h-0.8c-0.6,0-0.7-0.5-0.7-1v-3.9
			c0-0.1,0.1-0.5,0.2-0.7c0.4-0.7,0.9-0.9,1.3-0.9c0.3,0,0.5,0.1,0.7,0.2c0.1,0,0.3,0.1,0.4,0.1c0.2,0,0.6-0.3,0.6-0.7
			c0-0.3-0.2-0.6-0.7-0.6c-0.7,0-1.6,0.8-2,1.5l-0.1,0.1h-0.4l-0.1-1.5l0,0c0,0-0.1,0-0.1,0l-1.8,0.9c0,0,0,0,0,0l0,0l0.4,0.2
			c0.6,0.3,0.8,0.6,0.8,1.6v1.7c0,1,0,1.6,0,2.2c0,0.2-0.1,0.6-0.6,0.6L182.3,49.1L182.3,49.1z"/>
	</g>
	<g>
		<path class="st0" d="M191.6,39.5c0-1.2-0.2-1.5-0.9-1.7l-0.2-0.1c-0.2,0-0.2-0.1-0.2-0.1v-0.1c0,0,0-0.1,0.2-0.1
			c0.5-0.2,1.5-0.7,2-1c0.1-0.1,0.3-0.2,0.4-0.2c0.1,0,0.2,0.1,0.1,0.3c0,0.1,0,2.3,0,3.9v2.1c0.6-0.6,1.6-0.9,2.6-0.9
			c1.6,0,3.4,1.3,3.4,4c0,2.2-1.7,4.2-3.8,4.2c-1,0-1.8-0.2-2.2-0.5l-0.7,0.4c-0.1,0-0.1,0.1-0.2,0l-0.2,0c-0.1,0-0.1-0.1-0.1-0.1
			c0-0.3,0-1.8,0-3.1L191.6,39.5L191.6,39.5z M192.9,45.5c0,1.5,0.1,2.1,0.3,2.7c0.2,0.4,1,0.9,1.8,0.9c1.1,0,2.5-0.8,2.5-3.2
			c0-1.8-0.9-3.5-2.8-3.5c-0.7,0-1.4,0.2-1.8,0.7L192.9,45.5L192.9,45.5z"/>
		<path class="st0" d="M195,49.9c-0.9,0-1.7-0.2-2.2-0.4l-0.6,0.3c-0.1,0-0.2,0.1-0.4,0.1l-0.2-0.1c-0.1,0-0.3-0.1-0.2-0.4
			c0-0.2,0-1.8,0-3.1v-6.8c0-1.2-0.2-1.3-0.7-1.5l-0.2-0.1c-0.2,0-0.4-0.1-0.4-0.3v-0.1c0-0.2,0.2-0.3,0.3-0.3
			c0.6-0.3,1.5-0.7,1.9-1c0.1-0.1,0.3-0.2,0.5-0.2c0.1,0,0.2,0.1,0.3,0.1c0.1,0.1,0.1,0.3,0.1,0.4c0,0.2,0,2.4,0,3.9V42
			c0.6-0.4,1.5-0.7,2.3-0.7c1.8,0,3.6,1.4,3.6,4.2C199,47.8,197.1,49.9,195,49.9L195,49.9z M192.8,49l0.1,0.1
			c0.3,0.2,0.9,0.4,2.1,0.4c1.9,0,3.6-1.9,3.6-4c0-2.5-1.6-3.7-3.2-3.7c-0.9,0-1.9,0.4-2.4,0.9l-0.4,0.3v-2.6c0-2.2,0-3.8,0-3.9
			c0,0,0,0,0-0.1c-0.1,0-0.1,0.1-0.2,0.1c-0.5,0.3-1.5,0.8-2,1c0,0,0,0,0,0l0,0c0,0,0.1,0,0.1,0l0.2,0.1c0.8,0.3,1,0.7,1,1.9v6.8
			c0,1.6,0,2.7,0,3.1l0.1,0l0.1,0L192.8,49L192.8,49z M194.9,49.3c-0.9,0-1.7-0.5-2-1.1c-0.2-0.6-0.3-1.2-0.3-2.8V43l0.1-0.1
			c0.4-0.5,1.2-0.7,1.9-0.7c2,0,3,1.9,3,3.7C197.6,48.4,196.2,49.3,194.9,49.3L194.9,49.3z M193.1,43.2v2.3c0,1.5,0.1,2,0.3,2.6
			c0.1,0.4,0.9,0.8,1.6,0.8c1.1,0,2.3-0.8,2.3-3c0-1.6-0.8-3.3-2.5-3.3C194,42.7,193.5,42.9,193.1,43.2L193.1,43.2z"/>
	</g>
	<g>
		<path class="st0" d="M203.3,48.4c-0.9-1-1-1.7-1-3c0-0.9,0.5-2.1,1.6-3c1-0.7,1.9-0.9,2.5-0.9c1,0,2,0.5,2.6,1.1
			c0.8,0.8,1.3,1.8,1.3,3c0,2-1.8,4.1-4.1,4.1C205.2,49.7,204.1,49.3,203.3,48.4L203.3,48.4z M208.6,45.4c0-2-1.5-3.3-2.4-3.3
			c-0.5,0-1,0.1-1.4,0.6c-0.7,0.7-1,1.5-1,2.9c0,1,0.1,1.7,0.7,2.6c0.4,0.6,1,1,1.8,1C207.7,49.1,208.6,47.4,208.6,45.4L208.6,45.4z
			"/>
		<path class="st0" d="M206.1,49.9c-1.2,0-2.3-0.5-3-1.3c-0.9-1.1-1.1-1.8-1.1-3.1c0-0.9,0.5-2.2,1.7-3.1c0.8-0.6,1.7-0.9,2.6-0.9
			c1.1,0,2.2,0.6,2.7,1.1c0.9,0.9,1.3,1.9,1.3,3.2C210.4,47.6,208.6,49.9,206.1,49.9z M206.3,41.8c-0.8,0-1.6,0.3-2.4,0.8
			c-1.1,0.9-1.5,2-1.5,2.8c0,1.3,0.1,1.9,1,2.9c0.9,1.1,2.3,1.2,2.7,1.2c2.2,0,3.9-2,3.9-3.8c0-1.1-0.4-2-1.2-2.9
			C208.3,42.3,207.3,41.8,206.3,41.8L206.3,41.8z M206.3,49.3c-0.9,0-1.5-0.3-2-1c-0.6-0.9-0.7-1.6-0.7-2.7c0-1.5,0.3-2.3,1-3
			c0.5-0.6,1.1-0.6,1.6-0.6c1.1,0,2.7,1.4,2.7,3.6C208.8,47.6,207.7,49.4,206.3,49.3L206.3,49.3z M206.2,42.3
			c-0.4,0-0.9,0.1-1.3,0.5c-0.7,0.7-0.9,1.4-0.9,2.8c0,1,0.1,1.7,0.7,2.5c0.4,0.6,0.9,0.9,1.7,0.9c1.2,0,2.1-1.5,2.1-3.5
			C208.4,43.4,206.9,42.3,206.2,42.3L206.2,42.3z"/>
	</g>
	<g>
		<path class="st0" d="M214.7,44.5c0-0.9-0.2-1.1-0.7-1.4l-0.4-0.2c-0.1,0-0.2-0.1-0.2-0.1v-0.1c0-0.1,0-0.1,0.2-0.2l1.8-0.9
			c0.1,0,0.2-0.1,0.3-0.1c0.1,0,0.1,0.1,0.1,0.2L216,43h0.1c0.6-0.8,1.4-1.6,2.2-1.6c0.6,0,0.9,0.4,0.9,0.8c0,0.5-0.4,0.9-0.8,0.9
			c-0.2,0-0.4-0.1-0.5-0.1c-0.2-0.1-0.4-0.1-0.6-0.1c-0.3,0-0.8,0.2-1.1,0.8c-0.1,0.2-0.2,0.5-0.2,0.6v3.9c0,0.6,0.1,0.8,0.5,0.8
			h0.9c0.1,0,0.1,0,0.1,0.2v0.3c0,0.1,0,0.2-0.1,0.2c-0.1,0-1,0-2,0c-1.2,0-1.9,0-2,0c-0.1,0-0.1,0-0.1-0.2V49c0-0.1,0-0.2,0.2-0.2
			h0.7c0.3,0,0.4-0.1,0.4-0.3c0-0.6,0-1.3,0-2.2L214.7,44.5L214.7,44.5z"/>
		<path class="st0" d="M217.4,49.7c0,0-0.1,0-0.2,0c-0.3,0-1,0-1.7,0c-0.9,0-1.5,0-1.8,0c-0.1,0-0.2,0-0.2,0c-0.1,0-0.3,0-0.3-0.4
			V49c0-0.4,0.3-0.4,0.4-0.4h0.7c0.2,0,0.2,0,0.2-0.1c0-0.6,0-1.3,0-2.2v-1.7c0-0.9-0.1-1-0.6-1.2l-0.4-0.2c-0.1,0-0.3-0.1-0.3-0.3
			v-0.1c0-0.2,0.2-0.3,0.3-0.4l1.8-0.9c0.1-0.1,0.2-0.1,0.4-0.1c0.1,0,0.3,0,0.3,0.4l0.1,0.8c0.5-0.7,1.3-1.3,2.1-1.3
			c0.8,0,1.2,0.5,1.2,1c0,0.6-0.5,1.1-1,1.1c-0.3,0-0.5-0.1-0.6-0.2c-0.1-0.1-0.3-0.1-0.5-0.1c-0.3,0-0.6,0.2-0.9,0.7
			c-0.1,0.2-0.2,0.4-0.2,0.5v3.9c0,0.5,0.1,0.5,0.3,0.5h0.9c0.1,0,0.3,0,0.3,0.4v0.3C217.8,49.7,217.6,49.7,217.4,49.7L217.4,49.7z
			 M213.5,49.1v0.2c0,0,0.1,0,0.1,0c0.3,0,1,0,1.9,0c0.8,0,1.4,0,1.8,0c0,0,0.1,0,0.1,0v-0.2h-0.8c-0.7,0-0.7-0.5-0.7-1v-3.9
			c0-0.1,0.1-0.5,0.2-0.7c0.3-0.7,0.9-0.9,1.3-0.9c0.3,0,0.5,0.1,0.7,0.2c0.1,0,0.3,0.1,0.4,0.1c0.2,0,0.6-0.3,0.6-0.7
			c0-0.3-0.2-0.6-0.7-0.6c-0.7,0-1.6,0.8-2,1.5l-0.1,0.1h-0.4l-0.1-1.5l0,0c0,0-0.1,0-0.1,0l-1.8,0.9c0,0,0,0,0,0c0,0,0,0,0,0
			l0.4,0.2c0.6,0.3,0.8,0.6,0.8,1.6v1.7c0,1,0,1.6,0,2.2c0,0.2-0.1,0.6-0.6,0.6L213.5,49.1L213.5,49.1z"/>
	</g>
	<g>
		<path class="st0" d="M230.5,42.2c0-1.1,0-3.6,0-3.9c0-0.9-0.1-1.2-0.8-1.2h-0.9c-0.1,0-0.1,0-0.1-0.1v-0.4c0-0.1,0.1-0.1,0.2-0.1
			c0.4,0,1,0.1,2.6,0.1c1.4,0,2.1-0.1,2.5-0.1c0.1,0,0.2,0,0.2,0.1v0.5c0,0.1,0,0.1-0.2,0.1h-1c-0.6,0-0.7,0.3-0.7,1
			c0,0.3,0,2.7,0,3.7v0.3c0,0.1,0.1,0.1,0.2,0.1h6.9c0.3,0,0.4,0,0.4-0.3v-0.2c0-1-0.1-3.6-0.1-3.8c0-0.6-0.1-0.9-0.6-0.9h-1
			c-0.1,0-0.1,0-0.1-0.1v-0.5c0-0.1,0-0.1,0.1-0.1c0.4,0,1.2,0.1,2.4,0.1s2-0.1,2.4-0.1c0.1,0,0.2,0,0.2,0.1v0.4
			c0,0.1,0,0.1-0.2,0.1H242c-0.5,0-0.6,0.3-0.6,1c0,0.3,0,3.4,0,4.1v0.6c0,0.6,0,4.1,0.1,5.2c0,0.7,0.2,0.9,0.7,0.9h0.8
			c0.1,0,0.2,0,0.2,0.1v0.4c0,0.1,0,0.1-0.1,0.1c-0.4,0-1,0-2.3,0c-1.6,0-2.2,0-2.8,0c-0.1,0-0.1,0-0.1-0.1v-0.5
			c0-0.1,0-0.1,0.2-0.1h1.2c0.4,0,0.5-0.3,0.5-0.8c0-0.9,0.1-3.8,0.1-4.5v-0.3c0-0.2-0.1-0.2-0.4-0.2h-6.8c-0.2,0-0.3,0-0.3,0.2v0.4
			c0,0.5,0,3.3,0,4.6c0,0.4,0.2,0.6,0.6,0.6h0.9c0.1,0,0.1,0,0.1,0.1v0.5c0,0.1,0,0.1-0.1,0.1c-0.4,0-1,0-2.3,0c-1.6,0-2.2,0-2.6,0
			c-0.1,0-0.1,0-0.1-0.1v-0.5c0-0.1,0.1-0.1,0.1-0.1h1.1c0.5,0,0.5-0.4,0.5-0.9c0-0.9,0.1-4.4,0.1-4.9L230.5,42.2L230.5,42.2z"/>
		<path class="st0" d="M243,49.7c-0.1,0-0.3,0-0.5,0c-0.4,0-1,0-1.9,0c-1,0-1.6,0-2.1,0c-0.3,0-0.5,0-0.7,0c-0.2,0-0.3-0.1-0.3-0.3
			v-0.5c0-0.2,0.1-0.3,0.4-0.3h1.2c0.2,0,0.3,0,0.3-0.6c0-0.8,0.1-3.8,0.1-4.5v-0.3l0,0c-0.1,0-0.2,0-0.2,0h-6.8v0.4
			c0,0.5,0,3.3,0,4.6c0,0.4,0.1,0.4,0.4,0.4h0.9c0.2,0,0.4,0.1,0.4,0.3v0.5c0,0.2-0.1,0.3-0.4,0.3c-0.1,0-0.3,0-0.5,0
			c-0.4,0-1,0-1.8,0c-1.1,0-1.7,0-2.1,0c-0.2,0-0.4,0-0.5,0c-0.2,0-0.3-0.1-0.3-0.3v-0.5c0-0.2,0.2-0.3,0.3-0.3h1.1
			c0.2,0,0.3,0,0.3-0.7c0-0.9,0.1-4.4,0.1-4.9v-0.8c0-0.8,0-2.1,0-3c0-0.5,0-0.8,0-0.9c0-0.9-0.1-1-0.6-1h-0.9c-0.1,0-0.3,0-0.3-0.4
			v-0.4c0-0.2,0.1-0.3,0.4-0.3c0.1,0,0.3,0,0.5,0c0.4,0,1,0,2.1,0c1,0,1.6,0,2,0c0.2,0,0.4,0,0.5,0c0.3,0,0.4,0.2,0.4,0.3v0.5
			c0,0.2-0.1,0.4-0.4,0.4h-1c-0.4,0-0.5,0.1-0.5,0.8c0,0.1,0,0.4,0,0.9c0,0.9,0,2.2,0,2.9v0.2h6.9c0.1,0,0.1,0,0.2,0v-0.2
			c0-0.7,0-2.1,0-3c0-0.4,0-0.7,0-0.8c0-0.7-0.1-0.7-0.4-0.7h-1c-0.2,0-0.3-0.1-0.3-0.3v-0.5c0-0.2,0.1-0.3,0.3-0.3
			c0.1,0,0.3,0,0.6,0c0.4,0,1.1,0,1.9,0c0.8,0,1.4,0,1.9,0c0.2,0,0.4,0,0.5,0c0.2,0,0.4,0.1,0.4,0.4v0.4c0,0.2-0.1,0.3-0.4,0.3H242
			c-0.3,0-0.4,0-0.4,0.8c0,0.1,0,0.6,0,1.2c0,1,0,2.4,0,2.8v0.6c0,0.6,0,4.1,0.1,5.2c0,0.6,0.2,0.7,0.5,0.7h0.8
			c0.3,0,0.4,0.2,0.4,0.3v0.4C243.4,49.6,243.2,49.7,243,49.7L243,49.7z M231.4,49.3c0.9,0,1.5,0,1.9,0c0.2,0,0.3,0,0.4,0V49h-0.8
			c-0.5,0-0.8-0.3-0.8-0.8c0-1.3,0-4.1,0-4.6v-0.4c0-0.2,0.1-0.4,0.5-0.4h6.8c0.3,0,0.6,0,0.6,0.4v0.3c0,0.7,0,3.7-0.1,4.5
			c0,0.4,0,1.1-0.7,1.1H238v0.3c0.2,0,0.4,0,0.6,0c0.5,0,1.1,0,2.1,0c0.9,0,1.5,0,1.9,0c0.2,0,0.3,0,0.4,0V49h-0.8
			c-0.8,0-1-0.6-1-1.1c0-1-0.1-4.5-0.1-5.2v-0.6c0-0.4,0-1.8,0-2.8c0-0.6,0-1.1,0-1.2c0-0.5,0-1.2,0.8-1.2h0.8v-0.3
			c-0.1,0-0.3,0-0.4,0c-0.4,0-1,0-1.9,0c-0.8,0-1.4,0-1.9,0c-0.2,0-0.3,0-0.5,0v0.3h0.9c0.8,0,0.8,0.7,0.8,1.1c0,0.1,0,0.4,0,0.8
			c0,0.9,0.1,2.3,0.1,3.1V42c0,0.5-0.4,0.5-0.6,0.5h-6.9c-0.4,0-0.4-0.3-0.4-0.4v-0.3c0-0.7,0-2,0-2.9c0-0.4,0-0.8,0-0.8
			c0-0.7,0.1-1.3,0.9-1.3h0.9v-0.3c-0.1,0-0.3,0-0.4,0c-0.4,0-1,0-2,0c-1.1,0-1.7,0-2.2,0c-0.2,0-0.3,0-0.4,0v0.3h0.8
			c0.9,0,1,0.4,1,1.4c0,0.1,0,0.4,0,0.9c0,0.9,0,2.3,0,3V43c0,0.5,0,4.1-0.1,4.9c0,0.3,0,1.1-0.7,1.1h-1v0.3c0.1,0,0.3,0,0.4,0
			C229.7,49.3,230.3,49.2,231.4,49.3L231.4,49.3z"/>
	</g>
	<g>
		<path class="st0" d="M247.5,48.4c-0.9-1-1-1.7-1-3c0-0.9,0.5-2.1,1.6-3c1-0.7,1.9-0.9,2.5-0.9c1,0,2,0.5,2.6,1.1
			c0.8,0.8,1.3,1.8,1.3,3c0,2-1.8,4.1-4.1,4.1C249.5,49.7,248.3,49.3,247.5,48.4L247.5,48.4z M252.9,45.4c0-2-1.5-3.3-2.4-3.3
			c-0.5,0-1,0.1-1.4,0.6c-0.7,0.7-1,1.5-1,2.9c0,1,0.1,1.7,0.7,2.6c0.4,0.6,1,1,1.8,1C252,49.1,252.9,47.4,252.9,45.4L252.9,45.4z"
			/>
		<path class="st0" d="M250.3,49.9c-1.2,0-2.3-0.5-3-1.3c-0.9-1.1-1.1-1.8-1.1-3.1c0-0.9,0.4-2.2,1.7-3.1c0.8-0.6,1.7-0.9,2.6-0.9
			c1.1,0,2.2,0.6,2.7,1.1c0.9,0.9,1.3,1.9,1.3,3.2C254.7,47.6,252.8,49.9,250.3,49.9z M250.6,41.8c-0.8,0-1.6,0.3-2.3,0.8
			c-1.1,0.9-1.5,2-1.5,2.8c0,1.3,0.2,1.9,1,2.9c0.9,1.1,2.3,1.2,2.7,1.2c2.2,0,3.9-2,3.9-3.8c0-1.1-0.4-2-1.2-2.9
			C252.5,42.3,251.6,41.8,250.6,41.8L250.6,41.8z M250.6,49.3c-0.9,0-1.5-0.3-2-1c-0.6-0.9-0.7-1.6-0.7-2.7c0-1.5,0.3-2.3,1-3
			c0.5-0.6,1.1-0.6,1.6-0.6c1.1,0,2.7,1.4,2.7,3.6C253.1,47.6,252,49.4,250.6,49.3L250.6,49.3z M250.4,42.3c-0.4,0-0.9,0.1-1.3,0.5
			c-0.7,0.7-0.9,1.4-0.9,2.8c0,1,0.1,1.7,0.7,2.5c0.4,0.6,0.9,0.9,1.7,0.9c1.2,0,2.1-1.5,2.1-3.5C252.7,43.4,251.2,42.3,250.4,42.3
			L250.4,42.3z"/>
	</g>
	<g>
		<path class="st0" d="M260.3,47.2c0,1.4,0.6,1.6,1,1.6c0.4,0,1-0.1,1.2-0.2c0.1-0.1,0.2,0,0.2,0l0.1,0.2c0.1,0.1,0,0.1,0,0.2
			c-0.2,0.2-1,0.7-2.1,0.7c-0.9,0-1.8-0.9-1.8-1.6c0-0.8,0.1-2.4,0.1-2.6v-0.4c0-0.3,0-1.6,0-2.3h-1.1c-0.2,0-0.3-0.1-0.3-0.2
			s0.1-0.2,0.3-0.3c0.5-0.3,1.9-1.7,2.1-2.3c0.1-0.1,0.2-0.2,0.3-0.2c0.2,0,0.2,0.1,0.2,0.3l-0.1,1.8h2.6c0.1,0,0.2,0.1,0.1,0.2
			l-0.2,0.6c0,0.1-0.1,0.1-0.2,0.1h-2.4c0,0.8-0.1,1.7-0.1,2.6L260.3,47.2L260.3,47.2z"/>
		<path class="st0" d="M260.7,49.9c-1,0-2-0.9-2-1.8c0-0.5,0-1.3,0-1.9c0-0.3,0-0.6,0-0.7v-0.4c0-0.3,0-1.4,0-2.1h-0.9
			c-0.3,0-0.5-0.2-0.5-0.4c0-0.3,0.2-0.4,0.4-0.5c0.4-0.3,1.8-1.7,2.1-2.2c0.1-0.2,0.2-0.3,0.5-0.3c0.2,0,0.4,0.1,0.4,0.5l-0.1,1.6
			h2.3c0.1,0,0.2,0.1,0.3,0.2c0.1,0.1,0.1,0.2,0,0.3l-0.2,0.6c-0.1,0.3-0.3,0.3-0.4,0.3h-2.2c0,0.8-0.1,1.6-0.1,2.4v1.8
			c0,1.3,0.6,1.4,0.8,1.4c0.5,0,0.9-0.1,1.1-0.2c0.2-0.1,0.4-0.1,0.5,0.1l0.1,0.2c0.1,0.1,0.1,0.3-0.1,0.4
			C262.6,49.4,261.8,49.9,260.7,49.9L260.7,49.9z M260.2,39.8C260.2,39.8,260.2,39.9,260.2,39.8c-0.3,0.8-1.8,2.2-2.2,2.5
			c-0.1,0.1-0.2,0.1-0.2,0.1c0,0,0,0,0.1,0h1.4v0.2c0,0.8,0,2,0,2.3v0.4c0,0.1,0,0.4,0,0.7c0,0.6,0,1.4,0,1.9c0,0.6,0.8,1.4,1.6,1.4
			c1,0,1.7-0.5,1.9-0.7l0-0.1c-0.3,0.2-0.9,0.2-1.3,0.2c-0.2,0-1.2-0.1-1.2-1.8v-1.8c0-0.9,0-1.8,0.1-2.6v-0.2h2.6l0.2-0.5h-2.7
			L260.2,39.8C260.2,39.9,260.2,39.8,260.2,39.8L260.2,39.8z"/>
	</g>
	<g>
		<path class="st0" d="M267.2,44.5c0,0.2-0.1,0.5-0.1,0.9c0,1.8,1.2,3.2,2.6,3.2c1.1,0,1.9-0.6,2.2-1.3c0-0.1,0.1-0.1,0.2-0.1
			l0.2,0.1c0.1,0,0.1,0.1,0,0.3c-0.3,0.7-1.3,2-2.9,2c-1.1,0-2.2-0.3-2.9-1.3c-0.7-0.9-0.8-1.6-0.8-2.9c0-0.7,0.2-2,1.2-2.9
			c0.8-0.8,1.7-1,2.6-1c2.1,0,2.7,2,2.7,2.7c0,0.3-0.2,0.3-0.5,0.3L267.2,44.5L267.2,44.5z M270.2,44c0.4,0,0.5-0.1,0.5-0.3
			c0-0.4-0.2-1.6-1.4-1.6c-0.8,0-1.6,0.5-1.9,1.9H270.2L270.2,44z"/>
		<path class="st0" d="M269.5,49.9c-1.4,0-2.5-0.5-3.1-1.4c-0.7-0.9-0.9-1.7-0.9-3c0-0.7,0.2-2,1.2-3.1c0.9-0.9,2-1,2.8-1
			c2.2,0,2.9,2,2.9,2.9c0,0.5-0.5,0.5-0.7,0.5h-4.4c0,0.1,0,0.3,0,0.7c0,1.7,1,3,2.4,3c1,0,1.8-0.6,2.1-1.1c0.1-0.1,0.2-0.2,0.3-0.2
			h0.1l0.3,0.2c0.1,0,0.1,0.1,0.1,0.1c0.1,0.1,0,0.3-0.1,0.4C272.2,48.7,271.1,49.9,269.5,49.9L269.5,49.9z M269.6,41.8
			c-0.8,0-1.7,0.1-2.5,0.9c-1,1-1.1,2.2-1.1,2.8c0,1.3,0.2,1.9,0.8,2.8c0.7,1,1.9,1.2,2.7,1.2c1.8,0,2.7-1.7,2.8-1.9c0,0,0,0,0,0
			l-0.1,0c-0.3,0.6-1.2,1.3-2.4,1.3c-1.6,0-2.8-1.5-2.8-3.4c0-0.4,0-0.7,0.1-0.9l0-0.2h4.7c0.3,0,0.3,0,0.3-0.1
			C272.1,43.8,271.7,41.8,269.6,41.8L269.6,41.8z M270.2,44.2H267l0.1-0.3c0.3-1.3,1.1-2.1,2.1-2.1c1.2,0,1.6,1.1,1.6,1.9
			C270.9,43.9,270.8,44.2,270.2,44.2L270.2,44.2z M267.6,43.8h2.6c0.2,0,0.3,0,0.3,0c0,0,0-1.4-1.2-1.4
			C268.5,42.3,267.9,42.8,267.6,43.8L267.6,43.8z"/>
	</g>
	<g>
		<path class="st0" d="M278.1,44c0,1,0,3.7,0,4.3c0,0.3,0.1,0.6,0.5,0.6h0.8c0.2,0,0.2,0,0.2,0.2v0.3c0,0.1,0,0.2-0.1,0.2
			c-0.1,0-0.9,0-2.1,0c-1.2,0-1.9,0-2.1,0c-0.1,0-0.1-0.1-0.1-0.2V49c0-0.1,0-0.2,0.2-0.2h0.9c0.2,0,0.4-0.1,0.4-0.5
			c0-0.6,0-3.7,0-4.8v-1.2c0-1.3,0-3-0.1-3.5c0-0.6-0.3-0.9-0.9-1.1l-0.4-0.1c-0.1,0-0.1-0.1-0.1-0.1v-0.1c0-0.1,0.1-0.1,0.2-0.1
			c0.6-0.3,1.5-0.6,2.2-1.1c0.2-0.1,0.3-0.1,0.4-0.1c0.1,0,0.2,0.1,0.2,0.3c0,1-0.1,4.9-0.1,5.9L278.1,44L278.1,44z"/>
		<path class="st0" d="M279.6,49.7c0,0-0.1,0-0.2,0c-0.3,0-1,0-1.9,0s-1.5,0-1.8,0c-0.1,0-0.2,0-0.3,0c-0.2,0-0.3-0.1-0.3-0.4V49
			c0-0.4,0.3-0.4,0.5-0.4h0.9c0,0,0.2,0,0.2-0.3c0-0.6,0-3.8,0-4.8v-1.2c0-1.3,0-3-0.1-3.5c0-0.5-0.2-0.7-0.8-0.9l-0.4-0.1
			c-0.1,0-0.3-0.1-0.3-0.3v-0.1c0-0.2,0.2-0.3,0.3-0.3c0.1,0,0.3-0.1,0.4-0.2c0.6-0.2,1.2-0.5,1.7-0.9c0.2-0.1,0.3-0.2,0.5-0.2
			c0.1,0,0.2,0.1,0.3,0.1c0.1,0.1,0.1,0.3,0.1,0.5c0,1.1-0.1,4.9-0.1,5.9V44c0,0.9,0,3.7,0,4.3c0,0.3,0.1,0.4,0.3,0.4h0.8
			c0.4,0,0.4,0.2,0.4,0.4v0.3C279.9,49.6,279.7,49.7,279.6,49.7L279.6,49.7z M275.5,49.1v0.2c0,0,0.1,0,0.2,0c0.3,0,1,0,1.8,0
			c0.9,0,1.6,0,1.9,0c0.1,0,0.1,0,0.1,0v-0.2h-0.8c-0.6,0-0.7-0.6-0.7-0.8c0-0.6,0-3.4,0-4.3v-1.6c0-1,0.1-4.8,0.1-5.9
			c0,0,0-0.1,0-0.1c-0.1,0-0.1,0-0.2,0.1c-0.6,0.4-1.2,0.6-1.8,0.9c-0.1,0.1-0.3,0.1-0.4,0.2l0.3,0.1c0.7,0.2,1,0.6,1.1,1.3
			c0,0.5,0.1,2.2,0.1,3.5v1.2c0,1.1,0,4.3,0,4.8c0,0.5-0.4,0.7-0.6,0.7L275.5,49.1L275.5,49.1z"/>
	</g>
</g>
</svg>
